<svg width="30" height="30" viewBox="0 0 30 30" fill="none" xmlns="http://www.w3.org/2000/svg">
<path d="M18.9245 7.39388C20.9677 7.40138 22.6435 5.7508 22.6435 3.72884C22.6435 1.66936 20.9677 -0.00747756 18.9207 2.50789e-05C16.9375 0.00752772 15.2879 1.69187 15.2879 3.71008C15.2804 5.73204 16.915 7.38638 18.9245 7.39388Z" fill="url(#paint0_linear_351_52)"/>
<path d="M9.01194 7.59359C10.5041 7.60109 11.73 6.36316 11.73 4.85137C11.73 3.3546 10.5303 2.14292 9.03443 2.13917C7.52731 2.13542 6.33136 3.32083 6.32761 4.82511C6.32011 6.3519 7.51606 7.58609 9.01194 7.59359Z" fill="url(#paint1_linear_351_52)"/>
<path d="M2.17458 15.1499C0.974878 15.1499 0.00012207 16.129 0.00012207 17.3369C0.00012207 18.5448 0.974878 19.5239 2.17458 19.5239C3.37428 19.5239 4.34904 18.5448 4.34904 17.3369C4.34904 16.129 3.37428 15.1499 2.17458 15.1499ZM1.80342 18.4398L0.659956 17.5395L1.02737 17.0668L1.78842 17.667L3.2768 16.3991L3.66296 16.8568L1.80342 18.4398Z" fill="url(#paint2_linear_351_52)"/>
<path d="M29.9926 17.3372C29.9926 16.8084 29.5652 16.3809 29.0403 16.3809H6.90212C6.37725 16.3809 5.94986 16.8084 5.94986 17.3372C5.94986 17.866 6.37725 18.2936 6.90212 18.2936H29.0441C29.5652 18.2973 29.9926 17.866 29.9926 17.3372Z" fill="url(#paint3_linear_351_52)"/>
<path d="M2.17458 25.626C0.974878 25.626 0.00012207 26.6051 0.00012207 27.813C0.00012207 29.0209 0.974878 30 2.17458 30C3.37428 30 4.34904 29.0209 4.34904 27.813C4.34904 26.6051 3.37428 25.626 2.17458 25.626ZM1.80342 28.9159L0.659956 28.0156L1.02737 27.5429L1.78842 28.1431L3.2768 26.8752L3.66296 27.3328L1.80342 28.9159Z" fill="url(#paint4_linear_351_52)"/>
<path d="M29.0403 26.8569H6.90212C6.37725 26.8569 5.94986 27.2845 5.94986 27.8133C5.94986 28.3421 6.37725 28.7697 6.90212 28.7697H29.0441C29.569 28.7697 29.9964 28.3421 29.9964 27.8133C29.9964 27.2845 29.5652 26.8569 29.0403 26.8569Z" fill="url(#paint5_linear_351_52)"/>
<path d="M2.17458 20.3955C0.974878 20.3955 0.00012207 21.3746 0.00012207 22.5825C0.00012207 23.7905 0.974878 24.7695 2.17458 24.7695C3.37428 24.7695 4.34904 23.7905 4.34904 22.5825C4.34904 21.3746 3.37428 20.3955 2.17458 20.3955ZM2.6657 23.6779L2.22331 22.9989L1.77718 23.6779H1.10235L1.8859 22.5488L1.13609 21.4871H1.84091L2.22706 22.0874L2.63196 21.4871H3.3068L2.56823 22.5225L3.37428 23.6742H2.6657V23.6779Z" fill="url(#paint6_linear_351_52)"/>
<path d="M6.90212 21.626C6.37725 21.626 5.94986 22.0535 5.94986 22.5823C5.94986 23.1112 6.37725 23.5387 6.90212 23.5387H29.0476C29.5725 23.5387 29.9999 23.1112 29.9999 22.5823C29.9999 22.0535 29.5725 21.626 29.0476 21.626H6.90212Z" fill="url(#paint7_linear_351_52)"/>
<path d="M9.82171 13.2653V12.59C9.82171 10.9019 9.82171 11.4571 9.82546 9.76902C9.82546 9.19882 9.94168 8.67739 10.1441 8.21973C8.41956 8.22348 6.69124 8.22348 4.96668 8.22348C4.11939 8.22348 3.74823 8.59861 3.74823 9.46141C3.74823 11.5096 3.74823 11.3108 3.74823 13.359C3.74823 13.4678 3.75948 13.5766 3.76698 13.6967C4.43056 13.6967 5.0679 13.6967 5.74273 13.6967C5.74273 13.5316 5.74273 13.3965 5.74273 13.2653C5.74273 11.6297 5.74273 12.2411 5.74273 10.6056C5.74273 10.3692 5.74648 10.1592 6.14388 10.2792C6.14388 10.4705 6.14388 10.6543 6.14388 10.8419C6.14388 12.4137 6.15513 11.7422 6.13638 13.314C6.13263 13.6516 6.23386 13.7342 6.55628 13.7304C7.53478 13.7079 8.51329 13.7229 9.49554 13.7192C9.60802 13.7192 9.72424 13.7079 9.84421 13.6967C9.83296 13.5466 9.82171 13.4041 9.82171 13.2653Z" fill="url(#paint8_linear_351_52)"/>
<path d="M27.6082 12.8975C27.612 12.8825 27.612 12.9163 27.6082 12.8975V12.8975Z" fill="url(#paint9_linear_351_52)"/>
<path d="M11.8312 13.6772C12.7348 13.6772 13.612 13.6772 14.5156 13.6772C14.5156 12.1241 14.5081 12.8631 14.5268 11.3589C14.5268 11.2388 14.7068 11.1225 14.8042 11.0025C14.8867 11.1188 15.0367 11.2313 15.0404 11.3514C15.0629 12.1954 15.0517 11.9216 15.0517 12.7656C15.0517 13.4371 15.0517 12.9907 15.0517 13.6922C17.6685 13.6922 20.2329 13.6922 22.876 13.6922C22.876 13.4446 22.876 13.2608 22.876 13.0807C22.876 11.794 22.8722 12.7544 22.876 11.4677C22.876 11.2688 22.7897 10.9575 23.1497 11.0212C23.2509 11.04 23.3709 11.3101 23.3746 11.4677C23.3933 12.8219 23.3933 11.9291 23.3821 13.2833C23.3784 13.6134 23.4871 13.7335 23.817 13.726C24.4206 13.7072 25.0279 13.7034 25.6315 13.7297C26.0177 13.7447 26.1114 13.5947 26.1077 13.227C26.0889 11.3326 26.1002 11.6815 26.0964 9.78706C26.0927 8.84923 25.5678 8.26403 24.6493 8.26028C20.8515 8.24527 17.0537 8.24527 13.2559 8.26028C12.3261 8.26403 11.8087 8.83798 11.8087 9.77956C11.805 11.6927 11.805 11.3589 11.805 13.2683C11.805 13.3996 11.8237 13.5309 11.8312 13.6772Z" fill="url(#paint10_linear_351_52)"/>
<defs>
<linearGradient id="paint0_linear_351_52" x1="18.9657" y1="0" x2="18.9657" y2="7.3939" gradientUnits="userSpaceOnUse">
<stop stop-color="#735CF5"/>
<stop offset="1" stop-color="#5844E3"/>
</linearGradient>
<linearGradient id="paint1_linear_351_52" x1="9.02879" y1="2.13916" x2="9.02879" y2="7.59362" gradientUnits="userSpaceOnUse">
<stop stop-color="#735CF5"/>
<stop offset="1" stop-color="#5844E3"/>
</linearGradient>
<linearGradient id="paint2_linear_351_52" x1="2.17458" y1="15.1499" x2="2.17458" y2="19.5239" gradientUnits="userSpaceOnUse">
<stop stop-color="#735CF5"/>
<stop offset="1" stop-color="#5844E3"/>
</linearGradient>
<linearGradient id="paint3_linear_351_52" x1="17.9712" y1="16.3809" x2="17.9712" y2="18.2936" gradientUnits="userSpaceOnUse">
<stop stop-color="#735CF5"/>
<stop offset="1" stop-color="#5844E3"/>
</linearGradient>
<linearGradient id="paint4_linear_351_52" x1="2.17458" y1="25.626" x2="2.17458" y2="30" gradientUnits="userSpaceOnUse">
<stop stop-color="#735CF5"/>
<stop offset="1" stop-color="#5844E3"/>
</linearGradient>
<linearGradient id="paint5_linear_351_52" x1="17.9731" y1="26.8569" x2="17.9731" y2="28.7697" gradientUnits="userSpaceOnUse">
<stop stop-color="#735CF5"/>
<stop offset="1" stop-color="#5844E3"/>
</linearGradient>
<linearGradient id="paint6_linear_351_52" x1="2.17458" y1="20.3955" x2="2.17458" y2="24.7695" gradientUnits="userSpaceOnUse">
<stop stop-color="#735CF5"/>
<stop offset="1" stop-color="#5844E3"/>
</linearGradient>
<linearGradient id="paint7_linear_351_52" x1="17.9749" y1="21.626" x2="17.9749" y2="23.5387" gradientUnits="userSpaceOnUse">
<stop stop-color="#735CF5"/>
<stop offset="1" stop-color="#5844E3"/>
</linearGradient>
<linearGradient id="paint8_linear_351_52" x1="6.94618" y1="8.21973" x2="6.94618" y2="13.7305" gradientUnits="userSpaceOnUse">
<stop stop-color="#735CF5"/>
<stop offset="1" stop-color="#5844E3"/>
</linearGradient>
<linearGradient id="paint9_linear_351_52" x1="27.6096" y1="12.8936" x2="27.6096" y2="12.9034" gradientUnits="userSpaceOnUse">
<stop stop-color="#735CF5"/>
<stop offset="1" stop-color="#5844E3"/>
</linearGradient>
<linearGradient id="paint10_linear_351_52" x1="18.9564" y1="8.24902" x2="18.9564" y2="13.7307" gradientUnits="userSpaceOnUse">
<stop stop-color="#735CF5"/>
<stop offset="1" stop-color="#5844E3"/>
</linearGradient>
</defs>
</svg>
