<svg width="360" height="800" viewBox="0 0 360 800" fill="none" xmlns="http://www.w3.org/2000/svg">
<g clip-path="url(#clip0_105_190)">
<mask id="mask0_105_190" style="mask-type:luminance" maskUnits="userSpaceOnUse" x="-1" y="600" width="360" height="200">
<path d="M358.877 600.385H-1V800H358.877V600.385Z" fill="white"/>
</mask>
<g mask="url(#mask0_105_190)">
<path opacity="0.25" d="M273.922 909.62C345.896 909.62 404.242 851.435 404.242 779.66C404.242 707.885 345.896 649.7 273.922 649.7C201.947 649.7 143.601 707.885 143.601 779.66C143.601 851.435 201.947 909.62 273.922 909.62Z" fill="#5FC2FF"/>
<path d="M286.486 747.24V762.33" stroke="white" stroke-width="6.4218" stroke-miterlimit="10"/>
<path d="M281.372 755.01H286.481H291.59C291.59 755.01 296.614 774.9 314.915 774.9V778.895H286.481H258.048V774.9C276.353 774.9 281.372 755.01 281.372 755.01Z" fill="url(#paint0_linear_105_190)"/>
<path opacity="0.26" d="M291.596 755.01H288.677C288.677 755.01 289.274 770.415 299.537 778.725L299.357 778.895H314.915V774.9C296.619 774.9 291.596 755.01 291.596 755.01Z" fill="url(#paint1_linear_105_190)"/>
<path d="M307.209 630.715L265.759 742.755" stroke="white" stroke-width="6.4218" stroke-miterlimit="10"/>
<path d="M286.486 735.955C313.745 735.955 335.843 713.918 335.843 686.735C335.843 659.551 313.745 637.515 286.486 637.515C259.227 637.515 237.13 659.551 237.13 686.735C237.13 713.918 259.227 735.955 286.486 735.955Z" fill="url(#paint2_linear_105_190)"/>
<path d="M286.491 749.81C283.318 749.81 280.134 749.57 277 749.09C272.798 748.45 268.627 747.375 264.601 745.895C261.417 744.725 258.328 743.3 255.39 741.65C254.117 740.935 253.711 739.3 254.478 738.065C255.21 736.89 256.734 736.51 257.942 737.19C260.635 738.7 263.463 740.005 266.381 741.075C270.081 742.435 273.911 743.425 277.772 744.01C281.533 744.585 285.368 744.785 289.169 744.605C292.899 744.43 296.639 743.89 300.28 743C303.885 742.12 307.424 740.885 310.799 739.33C314.173 737.78 317.417 735.895 320.43 733.735C323.474 731.555 326.312 729.07 328.869 726.355C331.471 723.59 333.807 720.55 335.813 717.325C337.874 714.015 339.608 710.465 340.972 706.78C342.336 703.09 343.329 699.27 343.915 695.42C344.492 691.67 344.693 687.845 344.512 684.055C344.337 680.335 343.795 676.605 342.903 672.975C342.02 669.38 340.782 665.85 339.222 662.485C337.668 659.12 335.778 655.885 333.612 652.88C331.426 649.845 328.934 647.015 326.211 644.465C323.439 641.87 320.39 639.54 317.156 637.54C313.837 635.485 310.277 633.755 306.582 632.395C303.659 631.32 300.656 630.48 297.622 629.88C296.268 629.615 295.361 628.335 295.571 626.975C295.792 625.535 297.166 624.555 298.6 624.84C301.909 625.49 305.183 626.405 308.367 627.575C312.388 629.055 316.264 630.94 319.874 633.175C323.399 635.355 326.718 637.895 329.736 640.72C332.704 643.495 335.417 646.58 337.798 649.885C340.155 653.155 342.211 656.675 343.905 660.335C345.6 664 346.949 667.84 347.911 671.755C348.884 675.705 349.476 679.765 349.661 683.82C349.857 687.95 349.636 692.115 349.01 696.2C348.368 700.39 347.29 704.55 345.806 708.565C344.322 712.58 342.431 716.44 340.19 720.04C338.004 723.555 335.457 726.86 332.624 729.875C329.841 732.835 326.748 735.54 323.439 737.915C320.16 740.265 316.63 742.315 312.96 744.005C309.284 745.695 305.434 747.04 301.508 748C297.547 748.97 293.476 749.56 289.409 749.75C288.442 749.785 287.464 749.81 286.491 749.81Z" fill="url(#paint3_linear_105_190)"/>
<mask id="mask1_105_190" style="mask-type:luminance" maskUnits="userSpaceOnUse" x="237" y="637" width="99" height="99">
<path d="M321.38 721.535C340.655 702.313 340.655 671.149 321.38 651.928C302.105 632.706 270.854 632.706 251.579 651.928C232.305 671.149 232.305 702.313 251.579 721.535C270.854 740.756 302.105 740.756 321.38 721.535Z" fill="white"/>
</mask>
<g mask="url(#mask1_105_190)">
<g opacity="0.58">
<path d="M266.521 656.36C267.042 656.015 267.965 656.64 268.306 656.06C268.527 655.68 268.161 655.165 267.754 655.08C267.348 654.995 266.932 655.16 266.521 655.225C266.11 655.29 265.609 655.19 265.433 654.78C265.107 654.02 266.641 652.685 265.533 652.195C265.217 652.055 264.851 652.16 264.561 652.35C263.282 653.19 263.362 655.175 263.041 656.765C262.896 657.485 262.54 658.27 261.878 658.435C260.514 658.77 259.807 656.29 258.409 656.205C257.987 656.18 257.506 656.37 257.185 656.08C256.709 655.65 257.16 654.83 257.611 654.365C258.033 653.935 258.449 653.505 258.87 653.075C260.976 650.915 263.327 648.635 266.22 648.415C267.494 648.32 268.762 648.645 269.986 649.04C270.928 649.345 271.856 649.69 272.773 650.08C273.134 650.235 273.566 650.655 273.31 650.975C273.23 651.075 273.114 651.13 272.994 651.135C272.172 651.17 271.349 651.205 270.527 651.24C271.234 654.585 275.165 651.595 276.489 650.935C279.457 649.455 282.169 649.715 285.293 650.175C285.614 650.225 286.04 650.205 286.145 649.87C286.286 649.41 285.669 649.165 285.388 648.785C284.822 648.025 285.915 647.405 286.511 647.515C287.299 647.665 287.539 648.54 287.695 649.275C287.83 649.93 288.226 650.715 288.838 650.615C289.389 650.525 289.595 649.81 289.775 649.24C291.325 644.295 297.657 643.62 301.593 645.045C301.934 645.17 302.295 645.36 302.581 645.605C303.313 646.235 304.195 646.625 305.128 646.72C308.131 647.03 313.531 648.26 314.268 648.335C316.123 648.52 317.653 648.125 319.433 647.8C321.518 647.42 323.689 648.28 325.745 648.545C327.986 648.83 330.222 648.975 332.454 649.425C333.085 649.55 333.727 649.69 334.359 649.56C334.765 649.48 335.146 649.29 335.547 649.175C336.791 648.82 338.114 649.16 339.303 649.595C340.205 649.925 341.108 650.24 342.025 650.515C343.038 650.82 343.514 650.75 342.893 651.625C342.722 651.87 342.677 652.3 342.797 652.58C342.918 652.855 343.103 653.095 343.203 653.38C343.399 653.915 343.249 654.575 342.847 654.945C342.11 655.63 339.839 654.33 339.774 656.005C339.754 656.495 340.035 656.935 340.346 657.285C340.656 657.635 341.017 657.95 341.238 658.375C341.654 659.18 341.459 660.19 341.283 661.085C341.268 661.15 341.253 661.215 341.223 661.275C341.042 661.655 340.702 661.545 340.446 661.41C338.415 660.325 337.247 657.625 337.768 655.23C338.034 654.01 337.187 654.03 336.359 654.14C334.926 654.325 334.81 654.69 334.078 655.885C333.742 656.435 333.05 656.585 332.444 656.5C331.842 656.415 331.27 656.155 330.669 656.07C329.721 655.94 328.728 656.285 328.021 656.985C327.344 657.665 326.984 658.92 327.625 659.645C328.177 660.27 329.099 660.14 329.892 660.23C331.456 660.41 332.85 661.735 333.221 663.39C333.597 665.045 332.92 666.92 331.611 667.865C330.904 668.375 329.932 668.79 329.826 669.705C329.721 670.65 330.619 671.3 331.305 671.885C331.992 672.47 332.549 673.695 331.847 674.27C331.155 674.835 330.253 673.975 329.761 673.205C329.275 672.44 328.784 671.68 328.297 670.915C328.162 670.705 327.991 670.475 327.761 670.48C327.36 670.49 327.104 671.185 326.733 671.02C326.512 670.925 326.492 670.605 326.417 670.365C325.865 668.585 322.942 671.175 324.281 672.55C324.607 672.885 325.078 672.98 325.454 673.24C326.011 673.63 326.297 674.335 326.617 674.97C327.139 676 327.836 676.93 328.282 678C328.733 679.07 328.904 680.38 328.362 681.4C327.901 682.265 327.059 682.705 326.282 683.165C325.329 683.735 324.677 684.38 323.915 685.22C323.689 685.465 323.369 685.735 323.088 685.57C322.937 685.485 322.862 685.3 322.787 685.135C322.175 683.73 320.43 684.1 320.32 685.68C320.26 686.57 320.741 687.395 321.273 688.07C321.809 688.745 322.426 689.375 322.742 690.2C323.093 691.12 323.002 692.225 322.506 693.06C322.035 693.855 321.082 694.4 320.28 694.035C319.132 693.515 318.936 691.555 317.738 691.2C317.287 691.065 316.73 691.185 316.399 690.83C316.018 690.42 316.174 689.61 315.732 689.275C314.925 688.665 314.409 689.275 313.927 688.07C313.321 686.54 312.333 684.74 310.914 683.95C310.523 683.73 310.062 683.625 309.64 683.755C309.284 683.865 308.989 684.135 308.708 684.395C307.72 685.305 306.662 686.165 305.725 687.13C304.968 687.91 304.401 688.83 304.23 689.965C304.055 691.145 304.627 692.365 304.271 693.515C304.095 694.075 303.619 694.57 303.077 694.53C302.656 694.5 302.3 694.155 302.095 693.75C300.956 691.5 300.405 688.71 299.999 686.215C299.929 685.765 299.893 684.89 299.442 684.665C298.996 684.445 298.329 684.925 297.788 684.675C297.241 684.42 296.93 683.81 296.559 683.305C295.782 682.25 294.599 681.555 293.36 681.435C292.242 681.325 291.059 681.65 290.031 681.16C289.294 680.805 288.743 680.09 287.96 679.82C287.093 679.52 286.236 679.5 285.428 679.005C284.817 678.63 284.03 677.6 283.418 678.73C283.127 679.265 283.257 679.97 283.543 680.505C284.02 681.39 284.927 681.985 285.875 682.035C286.687 682.075 287.499 681.74 288.301 681.9C289.359 682.115 290.172 683.3 290.051 684.465C289.966 685.295 289.485 686.01 288.973 686.64C287.399 688.585 285.408 690.125 283.202 691.105C282.781 691.29 282.33 691.46 281.884 691.36C281.132 691.19 280.71 690.34 280.389 689.585C279.402 687.255 278.509 684.835 277.271 682.645C276.774 681.77 275.386 678.735 274.157 679.04C273.636 679.17 273.701 679.995 273.896 680.53C275.426 684.71 277.577 688.62 280.239 692.065C280.45 692.335 280.67 692.61 280.961 692.775C281.613 693.135 282.39 692.835 283.102 692.67C283.814 692.505 284.747 692.595 285.017 693.335C285.143 693.67 285.082 694.055 284.997 694.405C284.36 697 282.4 698.91 280.73 700.89C279.061 702.87 277.511 705.42 277.993 708.055C278.233 709.36 278.96 710.645 278.655 711.935C278.133 714.125 274.949 714.925 275.015 717.19C275.03 717.765 275.285 718.335 275.175 718.9C275.1 719.28 274.874 719.6 274.659 719.9C274.027 720.775 273.4 721.645 272.768 722.52C270.973 725.005 268.762 727.725 265.854 727.725C265.513 727.725 265.152 727.675 264.897 727.435C264.681 727.23 264.576 726.925 264.48 726.635C263.352 723.215 262.224 719.8 261.096 716.38C260.795 715.465 260.484 714.52 260.504 713.55C260.524 712.33 261.051 711.19 261.287 710C261.738 707.745 261.096 705.27 259.632 703.605C259.196 703.11 258.674 702.64 258.524 701.98C258.268 700.84 259.221 699.56 258.679 698.54C258.484 698.175 258.138 697.945 257.807 697.73C256.679 697 255.501 696.255 254.197 696.15C252.026 695.97 250.111 697.495 247.97 697.475C245.493 697.455 244.896 695.135 243.492 693.415C242.855 692.63 241.968 691.99 241.712 690.98C241.442 689.905 242.003 689.005 242.209 688C242.449 686.835 242.239 685.675 242.329 684.5C242.479 682.485 243.648 681.155 244.851 679.755C246.094 678.31 247.343 676.855 248.797 675.655C251.54 673.395 254.728 672.845 258.103 672.9C259.802 672.93 259.156 674.02 259.843 675.16C260.304 675.925 261.181 676.395 261.918 676.78C262.831 677.26 263.899 677.74 264.811 677.265C265.142 677.09 265.413 676.805 265.744 676.63C266.767 676.08 267.955 676.7 269.053 677.04C270.312 677.43 271.67 677.44 272.934 677.06C273.596 676.86 274.257 676.54 274.699 675.965C275.14 675.39 275.305 674.52 274.949 673.88C274.493 673.07 273.47 672.95 272.598 672.99C271.725 673.03 270.748 673.11 270.091 672.49C269.544 671.975 269.394 671.125 268.983 670.47C268.572 669.815 267.559 669.45 267.188 670.125C266.887 670.67 267.263 671.51 266.837 671.95C266.04 672.775 265.202 671.02 264.962 670.425C264.185 668.525 262.731 666.96 260.936 666.22C260.785 666.16 260.615 666.165 260.474 666.26C260.103 666.505 260.334 667.075 260.63 667.375C260.91 667.66 261.277 667.99 261.196 668.405C261.056 669.15 260.209 668.845 259.843 668.54C259.557 668.3 259.321 667.99 259.02 667.765C258.253 667.185 257.19 667.265 256.353 667.72C254.433 668.77 253.64 671.265 251.72 672.305C249.714 673.39 246.581 671.205 248.145 668.735C248.581 668.045 249.374 667.64 250.136 667.715C250.517 667.75 250.888 667.895 251.269 667.92C251.65 667.945 252.081 667.81 252.267 667.445C252.567 666.835 252.006 666.16 251.825 665.495C251.655 664.865 251.845 664.175 252.191 663.635C253.866 661.005 258.103 659.105 260.981 659.695C262.234 659.95 263.743 660.115 264.581 659.07C264.902 658.67 265.097 658.11 265.543 657.89C265.709 657.81 265.894 657.785 266.06 657.7C266.481 657.485 266.666 656.855 266.441 656.42C266.471 656.395 266.496 656.38 266.521 656.36Z" fill="url(#paint4_linear_105_190)"/>
<path d="M334.183 725.625C333.597 725.24 332.835 725.205 332.103 725.355C329.475 725.9 327.009 727.075 324.386 727.615C324.111 727.67 323.805 727.72 323.559 727.565C323.063 727.255 323.504 726.515 323.614 726.12C323.96 724.855 323.604 723.74 323.634 722.475C323.694 720.04 323.94 718.15 326.191 717.24C327.059 716.89 327.956 716.695 328.804 716.255C329.38 715.955 329.927 715.47 330.082 714.795C330.102 714.7 330.122 714.595 330.177 714.52C330.368 714.27 330.869 714.305 331.115 714.05C331.581 713.57 331.867 712.84 332.373 712.34C332.544 712.17 332.744 712 332.98 711.995C333.256 711.985 333.492 712.205 333.672 712.43C334.71 713.73 335.061 712.36 335.818 711.48C336.545 710.635 337.814 710.475 338.826 710.565C338.952 710.575 339.087 710.595 339.182 710.685C339.388 710.88 339.288 711.24 339.192 711.52C338.48 713.63 341.674 715.65 342.512 713.345C342.772 712.625 342.873 711.87 343.203 711.17C343.941 709.635 345.109 714.58 345.099 715.235C345.099 715.37 345.094 715.51 345.149 715.63C345.234 715.825 345.445 715.91 345.61 716.025C346.227 716.445 346.437 717.445 346.723 718.13C347.114 719.065 348.017 718.845 348.102 720.095C348.147 720.77 348.122 721.45 348.097 722.13C348.087 722.335 348.082 722.54 348.022 722.74C347.901 723.155 347.571 723.485 347.53 723.92C347.515 724.09 347.546 724.265 347.505 724.43C347.47 724.57 347.38 724.69 347.295 724.8C346.207 726.22 345.034 727.555 343.845 728.87C343.143 729.645 342.246 730.135 341.343 730.58C340.341 731.08 339.488 730.835 338.41 730.695C338.049 730.65 337.638 730.565 337.458 730.225C337.227 729.785 337.538 729.325 337.437 728.885C337.347 728.48 336.961 728.25 336.891 727.845C336.841 727.55 337.016 727.195 336.831 726.975C336.655 726.77 336.339 726.89 336.129 727.055C335.918 727.22 335.683 727.43 335.432 727.35C335.181 727.27 335.091 726.94 334.991 726.675C334.815 726.195 334.529 725.85 334.183 725.625Z" fill="url(#paint5_linear_105_190)"/>
<path d="M226.61 644.6C226.595 644.59 226.575 644.585 226.56 644.575C225.959 644.32 226.039 643.375 226.671 643.255C226.986 643.195 227.237 643.135 227.358 643.07C228.09 642.685 227.703 642.1 227.017 642.23C225.342 642.55 223.702 643.045 222.033 643.395C220.98 643.615 220.112 644.38 219.15 644.84C218.944 644.94 218.724 645.025 218.498 645.025C218.077 645.025 217.711 644.735 217.315 644.585C216.904 644.43 216.462 644.425 216.046 644.28C215.635 644.14 215.224 643.79 215.204 643.325C215.7 642.705 216.477 642.445 217.229 642.34C218.097 642.22 218.944 642.27 219.792 641.98C220.664 641.68 221.466 641.17 222.359 640.935C223.301 640.685 224.294 640.755 225.262 640.825C226.676 640.93 228.095 641.03 229.508 641.135C229.734 641.15 229.955 641.165 230.18 641.185C231.253 641.265 232.878 641.54 233.906 641.04C234.041 640.975 234.166 640.875 234.312 640.84C234.477 640.8 234.648 640.85 234.813 640.905C236.357 641.41 237.721 641.49 239.326 641.48C240.619 641.47 241.913 641.465 243.206 641.455C243.522 641.455 243.843 641.45 244.149 641.355C244.39 641.28 244.615 641.145 244.866 641.105C245.337 641.03 246.756 641.55 246.831 642.13C246.847 642.25 246.836 642.38 246.766 642.48C246.711 642.56 246.621 642.61 246.541 642.655C246.185 642.845 245.819 643.03 245.513 643.3C245.207 643.57 244.956 643.95 244.906 644.375C244.876 644.645 244.921 644.935 244.796 645.17C244.701 645.345 244.525 645.455 244.35 645.525C243.923 645.69 243.462 645.68 243.016 645.765C242.254 645.915 241.707 646.505 241.808 647.39C241.848 647.72 241.983 648.055 241.908 648.375C241.843 648.655 241.617 648.87 241.371 648.985C240.333 649.465 239.065 649.22 237.977 649.495C236.543 649.855 235.34 650.93 233.921 651.36C233.189 651.585 232.517 651.715 232.015 652.375C231.474 653.09 231.334 654.095 230.617 654.68C230.145 655.06 229.493 655.155 228.947 654.92C227.708 654.385 227.262 652.155 227.042 650.905C227.007 650.695 226.971 650.47 227.067 650.28C227.247 649.92 227.879 650.2 228.19 650.09C228.646 649.93 229.017 649.47 229.142 648.975C229.323 648.255 229.097 647.48 228.736 646.845C228.26 646.01 227.588 645.195 226.771 644.685C226.721 644.655 226.666 644.625 226.61 644.6Z" fill="url(#paint6_linear_105_190)"/>
<path d="M323.544 700.475C323.614 700.475 323.684 700.42 323.745 700.25C323.795 700.11 323.785 699.95 323.82 699.805C323.885 699.51 324.126 699.41 324.251 699.165C324.386 698.905 324.341 698.625 324.517 698.37C324.687 698.13 324.963 697.97 325.219 697.865C325.63 697.695 326.086 697.585 326.382 697.235C326.587 696.995 326.698 696.67 326.933 696.47C327.59 695.93 328.247 696.755 328.357 697.42C328.453 697.985 328.067 698.405 327.966 698.925C327.846 699.535 328.558 700.135 328.342 700.64C328.242 700.875 328.001 700.975 327.916 701.225C327.816 701.52 327.931 701.8 327.731 702.09C327.54 702.36 327.284 702.505 327.134 702.81C326.994 703.09 326.979 703.46 326.703 703.635C326.567 703.72 326.402 703.73 326.247 703.735C325.555 703.755 324.848 703.75 324.171 703.56C323.318 703.325 323.063 702.975 322.732 702.135C322.581 701.76 322.25 700.085 323.083 700.185C323.228 700.21 323.394 700.47 323.544 700.475Z" fill="url(#paint7_linear_105_190)"/>
<path d="M279.928 713.985C280.018 713.66 280.324 713.465 280.625 713.36C281.548 713.035 282.23 712.61 282.816 711.735C282.906 711.6 282.992 711.46 283.122 711.37C283.593 711.055 283.669 711.795 283.684 712.13C283.704 712.575 283.618 713.015 283.563 713.455C283.433 714.46 283.067 715.39 282.761 716.35C282.48 717.235 282.215 718.125 281.939 719.015C281.728 719.695 281.593 720.435 280.891 720.705C280.399 720.895 279.813 720.73 279.457 720.315C279.181 719.99 279.056 719.54 279.011 719.1C278.976 718.745 278.996 718.375 279.121 718.045C279.271 717.65 279.562 717.335 279.763 716.97C280.159 716.26 280.134 715.485 279.973 714.705C279.923 714.465 279.863 714.215 279.928 713.985Z" fill="url(#paint8_linear_105_190)"/>
<path d="M320.225 704.41V704.975C320.225 705.385 319.949 705.745 319.568 705.795C319.478 705.805 319.387 705.805 319.292 705.795C319.087 705.775 318.896 705.67 318.771 705.495C317.693 704.045 316.981 702.33 315.903 700.885C315.888 700.87 315.878 700.85 315.863 700.83C315.406 700.175 316.033 699.285 316.745 699.57C316.84 699.61 316.936 699.63 317.036 699.63C317.292 699.62 317.537 699.755 317.683 699.985C318.55 701.345 319.398 702.61 320.125 704.01C320.195 704.135 320.225 704.27 320.225 704.41Z" fill="url(#paint9_linear_105_190)"/>
</g>
</g>
<path opacity="0.35" d="M304.637 679.04C309.851 664.945 306.873 649.83 298.099 638.895C274.067 633.065 248.947 646 240.178 669.7C237.034 678.195 236.393 687 237.877 695.315C241.707 698.79 246.26 701.605 251.419 703.505C272.889 711.4 296.715 700.45 304.637 679.04Z" fill="white"/>
<path d="M139.108 758.785H232.015C232.672 758.785 233.204 759.315 233.204 759.97C233.204 760.625 232.672 761.155 232.015 761.155H186.354C184.278 761.155 182.599 762.83 182.599 764.9V772.785C182.599 774.855 184.278 776.53 186.354 776.53H232.015C232.672 776.53 233.204 777.06 233.204 777.715C233.204 778.37 232.672 778.9 232.015 778.9H139.108C137.032 778.9 135.353 777.225 135.353 775.155V762.54C135.353 760.465 137.032 758.785 139.108 758.785Z" fill="url(#paint10_linear_105_190)"/>
<path d="M186.354 761.15H227.272V776.525H186.354C184.278 776.525 182.599 774.85 182.599 772.78V764.895C182.599 762.83 184.278 761.15 186.354 761.15Z" fill="url(#paint11_linear_105_190)"/>
<path opacity="0.58" d="M182.599 764.9C182.599 762.83 184.278 761.155 186.354 761.155H227.272L182.599 767.145V764.9Z" fill="url(#paint12_linear_105_190)"/>
<path d="M233.204 777.71C233.204 777.055 232.672 776.525 232.015 776.525H186.329C184.489 776.525 182.995 775.035 182.995 773.2V764.475C182.995 762.64 184.489 761.15 186.329 761.15H232.015C232.672 761.15 233.204 760.62 233.204 759.965C233.204 759.31 232.672 758.78 232.015 758.78H184.92C182.543 758.78 180.618 760.7 180.618 763.07V774.6C180.618 776.97 182.543 778.89 184.92 778.89H232.015C232.672 778.895 233.204 778.365 233.204 777.71Z" fill="url(#paint13_linear_105_190)"/>
<path opacity="0.13" d="M162.829 775.15V762.535C162.829 760.465 164.508 758.79 166.584 758.79H146.814C144.739 758.79 143.059 760.465 143.059 762.535V775.15C143.059 777.22 144.739 778.895 146.814 778.895H166.584C164.508 778.895 162.829 777.215 162.829 775.15ZM152.987 773.865C150.204 773.865 147.948 771.615 147.948 768.84C147.948 766.065 150.204 763.815 152.987 763.815C155.769 763.815 158.026 766.065 158.026 768.84C158.026 771.615 155.769 773.865 152.987 773.865Z" fill="white"/>
<path d="M195.048 766.55L227.272 766.22V766.885L195.048 766.55Z" fill="white"/>
<path d="M195.048 770.58L227.272 770.25V770.915L195.048 770.58Z" fill="white"/>
<path d="M220.554 773.045L217.24 771.1L213.93 773.045V766.505H220.554V773.045Z" fill="url(#paint14_linear_105_190)"/>
<path d="M219.491 715.515H131.327C130.67 715.515 130.138 716.045 130.138 716.7C130.138 717.355 130.67 717.885 131.327 717.885H190.631C192.707 717.885 194.386 719.56 194.386 721.63V734.245C194.386 736.315 192.707 737.99 190.631 737.99H131.327C130.67 737.99 130.138 738.52 130.138 739.175C130.138 739.83 130.67 740.36 131.327 740.36H219.491C221.567 740.36 223.246 738.685 223.246 736.615V719.27C223.246 717.19 221.567 715.515 219.491 715.515Z" fill="url(#paint15_linear_105_190)"/>
<path opacity="0.13" d="M205.171 740.35C207.247 740.35 208.926 738.675 208.926 736.605V719.26C208.926 717.19 207.247 715.515 205.171 715.515H211.584C213.66 715.515 215.339 717.19 215.339 719.26V736.605C215.339 738.675 213.66 740.35 211.584 740.35" fill="white"/>
<path d="M190.631 717.88H136.07V737.985H190.631C192.707 737.985 194.386 736.31 194.386 734.24V721.625C194.386 719.555 192.702 717.88 190.631 717.88Z" fill="url(#paint16_linear_105_190)"/>
<path opacity="0.58" d="M194.386 721.625C194.386 719.555 192.707 717.88 190.631 717.88H136.07L194.386 723.87V721.625Z" fill="url(#paint17_linear_105_190)"/>
<path d="M130.138 739.17C130.138 738.515 130.67 737.985 131.327 737.985H190.902C192.742 737.985 194.236 736.495 194.236 734.66V721.205C194.236 719.37 192.742 717.88 190.902 717.88H131.327C130.67 717.88 130.138 717.35 130.138 716.695C130.138 716.04 130.67 715.51 131.327 715.51H192.31C194.687 715.51 196.612 717.43 196.612 719.8V736.065C196.612 738.435 194.687 740.355 192.31 740.355H131.327C130.67 740.35 130.138 739.82 130.138 739.17Z" fill="url(#paint18_linear_105_190)"/>
<path d="M188.455 725.145L136.07 725.48V724.81L188.455 725.145Z" fill="white"/>
<path d="M188.455 728.775L136.07 729.11V728.44L188.455 728.775Z" fill="white"/>
<path d="M188.455 732.405L136.07 732.74V732.07L188.455 732.405Z" fill="white"/>
<path d="M152.55 742.615H244.204C244.861 742.615 245.393 742.085 245.393 741.43C245.393 740.775 244.861 740.245 244.204 740.245H152.55C151.894 740.245 151.362 740.775 151.362 741.43C151.362 742.085 151.894 742.615 152.55 742.615Z" fill="url(#paint19_linear_105_190)"/>
<path d="M152.55 758.785H244.204C244.861 758.785 245.393 758.255 245.393 757.6C245.393 756.945 244.861 756.415 244.204 756.415H152.55C151.894 756.415 151.362 756.945 151.362 757.6C151.362 758.255 151.894 758.785 152.55 758.785Z" fill="url(#paint20_linear_105_190)"/>
<path d="M155.514 756.42H241.241V742.615H155.514V756.42Z" fill="url(#paint21_linear_105_190)"/>
<path d="M155.514 756.42H183.306V742.615H155.514V756.42Z" fill="url(#paint22_linear_105_190)"/>
<path opacity="0.58" d="M155.514 746.805L241.241 742.615H155.514V746.805Z" fill="url(#paint23_linear_105_190)"/>
<path d="M227.894 747.29C225.432 747.365 222.975 747.4 220.514 747.455L213.133 747.55C208.215 747.605 203.291 747.6 198.372 747.63C193.454 747.605 188.53 747.605 183.611 747.555L176.231 747.46C173.769 747.405 171.312 747.37 168.851 747.295C171.312 747.22 173.769 747.185 176.231 747.13L183.611 747.035C188.53 746.98 193.454 746.985 198.372 746.96C203.291 746.99 208.215 746.985 213.133 747.04L220.514 747.135C222.975 747.18 225.437 747.215 227.894 747.29Z" fill="white"/>
<path d="M237.681 750.92L227.854 751.08L218.032 751.175L198.377 751.255L178.723 751.175L168.901 751.085L159.073 750.92L168.901 750.755L178.723 750.665L198.377 750.585L218.032 750.665L227.854 750.76L237.681 750.92Z" fill="white"/>
<path d="M227.894 754.55C225.432 754.625 222.975 754.66 220.514 754.715L213.133 754.81C208.215 754.865 203.291 754.86 198.372 754.89C193.454 754.865 188.53 754.865 183.611 754.815L176.231 754.72C173.769 754.665 171.312 754.63 168.851 754.555C171.312 754.48 173.769 754.445 176.231 754.39L183.611 754.295C188.53 754.24 193.454 754.245 198.372 754.22C203.291 754.25 208.215 754.245 213.133 754.3L220.514 754.395C222.975 754.445 225.437 754.475 227.894 754.55Z" fill="white"/>
<path d="M218.277 664.565C201.2 690.325 229.508 734.05 274.674 719.905C311.466 708.38 306.983 672.835 293.862 672.87C286 672.895 278.83 686.115 288.677 702.49C300.801 722.655 315.01 707.545 317.126 697.1" stroke="white" stroke-width="1.3345" stroke-miterlimit="10" stroke-linecap="round" stroke-linejoin="round"/>
<path d="M317.773 671.785C314.534 671.785 311.912 674.4 311.912 677.63C311.912 682.14 317.773 692.95 317.773 692.95C317.773 692.95 323.634 681.85 323.634 677.63C323.629 674.405 321.007 671.785 317.773 671.785ZM317.773 681.405C315.682 681.405 313.988 679.715 313.988 677.63C313.988 675.545 315.682 673.855 317.773 673.855C319.864 673.855 321.559 675.545 321.559 677.63C321.554 679.715 319.859 681.405 317.773 681.405Z" fill="url(#paint24_linear_105_190)"/>
<path d="M178.868 687.09L202.158 696.11V724.61" stroke="white" stroke-width="1.3345" stroke-miterlimit="10" stroke-linecap="round" stroke-linejoin="round"/>
<path d="M176.246 680.39L142.487 694.9C142.026 695.1 142.026 695.75 142.487 695.95L176.246 710.46C176.532 710.585 176.853 710.585 177.138 710.46L210.897 695.95C211.358 695.75 211.358 695.1 210.897 694.9L177.138 680.39C176.853 680.265 176.532 680.265 176.246 680.39Z" fill="url(#paint25_linear_105_190)"/>
<path d="M157.389 697.1C157.389 697.1 176.697 688.77 196.001 697.1V716.08H157.389V697.1Z" fill="url(#paint26_linear_105_190)"/>
<path d="M202.158 717.885C200.719 717.885 199.551 723.23 199.551 729.83H204.76C204.765 723.23 203.597 717.885 202.158 717.885Z" fill="url(#paint27_linear_105_190)"/>
<path opacity="0.35" d="M157.389 697.1C157.389 697.1 175.424 694.55 186.77 698.885C190.751 700.405 193.765 702.61 196.001 704.825V697.1C176.692 688.77 157.389 697.1 157.389 697.1Z" fill="url(#paint28_linear_105_190)"/>
<path d="M138.622 641.945C179.289 639.605 190.982 660.115 187.206 668.195C183.586 675.94 160.091 664.715 172.601 636.235" stroke="white" stroke-width="1.3345" stroke-miterlimit="10" stroke-linecap="round" stroke-linejoin="round"/>
<path d="M175.639 787.57H337.392" stroke="white" stroke-width="1.3345" stroke-miterlimit="10" stroke-linecap="round" stroke-linejoin="round"/>
</g>
<path opacity="0.3" d="M90.7477 750.79C71.4606 736.773 77.046 693.914 34.7815 691.114C20.1438 690.144 8.9498 695.506 -1 702.18V800C47.9632 800 111.784 800 125 800C123.848 783.763 115.016 768.431 90.7477 750.79Z" fill="#9DEEFF"/>
<g opacity="0.6">
<g opacity="0.3">
<path d="M51.1464 232.1L48.1782 233.01L46.1877 228.405L41.6802 229.2L39.6245 226L38 227.04L40.7526 231.32L45.0194 230.565L47.0952 235.355L51.5626 233.985L51.1464 232.1Z" fill="#9ED16F"/>
<path d="M335.146 253.1L332.178 254.005L330.183 249.405L325.68 250.2L323.624 247L322 248.04L324.748 252.32L329.019 251.565L331.09 256.35L335.558 254.985L335.146 253.1Z" fill="#9ED16F"/>
<path d="M315.367 50.6616C307.275 51.9916 304.868 62.5816 311.596 67.3216C312.805 68.1716 313.642 69.4516 313.998 70.8866L315.222 75.8166C315.557 77.1766 316.886 78.0466 318.27 77.8166L321.338 77.3116C322.722 77.0866 323.7 75.8366 323.585 74.4416C323.159 69.3516 322.632 67.5066 324.292 65.2416C329.145 58.6016 323.464 49.3316 315.367 50.6616Z" fill="#62BDF3"/>
<path d="M316.194 72.2017C315.668 67.8417 314.926 63.2417 314.675 61.9367C310.037 62.1917 311.797 57.3167 313.938 59.2967C314.55 59.8617 314.835 60.6267 315.026 61.4667C316.565 61.3267 318.074 60.8917 319.448 60.1817C319.373 59.1067 319.268 58.2917 319.569 57.6067C320.025 56.5667 321.343 56.2867 321.88 57.2967C322.081 57.6767 322.116 58.1617 321.97 58.5667C321.659 59.4267 320.722 59.9917 319.905 60.4367C320.15 63.9017 320.486 67.3917 320.912 70.8317L320.476 70.8867C320.055 67.5017 319.724 64.0667 319.478 60.6567C318.115 61.3317 316.63 61.7567 315.116 61.8967C315.432 63.5667 316.134 68.0517 316.63 72.1417L316.194 72.2017ZM312.474 60.9067C312.885 61.3517 313.577 61.5467 314.585 61.4967C314.409 60.7567 314.154 60.0917 313.642 59.6167C312.489 58.5517 311.782 60.1617 312.474 60.9067ZM319.975 57.7817C319.724 58.3617 319.819 59.1017 319.874 59.9517C320.536 59.5767 321.308 59.1067 321.554 58.4167C321.73 57.9317 321.534 57.2517 321.038 57.1267C320.993 57.1117 320.155 57.3767 319.975 57.7817Z" fill="#D1EAF2"/>
<path d="M313.963 70.7666C313.973 70.8066 313.988 70.8466 313.998 70.8866L315.222 75.8166C315.557 77.1766 316.886 78.0466 318.27 77.8166L321.338 77.3116C322.722 77.0866 323.7 75.8366 323.585 74.4416C323.394 72.1766 323.189 70.5566 323.158 69.2566L313.963 70.7666Z" fill="#7772D6"/>
<path d="M309.37 46.9818L306.949 42.5768C306.713 42.1518 306.873 41.6168 307.3 41.3818C307.726 41.1468 308.262 41.3068 308.498 41.7318L310.92 46.1368C311.155 46.5618 310.995 47.0968 310.569 47.3318C310.137 47.5668 309.601 47.4068 309.37 46.9818Z" fill="#62BDF3"/>
<path d="M304.081 57.6416L298.806 57.1816C298.32 57.1416 297.959 56.7117 298.004 56.2267C298.044 55.7417 298.475 55.3817 298.961 55.4267L304.236 55.8867C304.722 55.9267 305.083 56.3567 305.038 56.8417C304.993 57.3217 304.567 57.6816 304.081 57.6416Z" fill="#62BDF3"/>
<path d="M298.846 73.7717C298.505 73.4267 298.505 72.8666 298.851 72.5266C300.15 71.2466 301.574 70.0867 303.088 69.0767C303.494 68.8067 304.041 68.9166 304.311 69.3216C304.582 69.7266 304.472 70.2716 304.066 70.5416C302.642 71.4916 301.303 72.5766 300.085 73.7766C299.749 74.1166 299.192 74.1167 298.846 73.7717Z" fill="#62BDF3"/>
<path d="M322.406 46.7467C321.935 46.6217 321.654 46.1367 321.78 45.6667C322.376 43.4367 322.742 41.1367 322.868 38.8317C322.893 38.3467 323.309 37.9717 323.795 38.0017C324.282 38.0267 324.658 38.4417 324.628 38.9267C324.497 41.3517 324.111 43.7767 323.484 46.1217C323.359 46.5917 322.873 46.8717 322.406 46.7467Z" fill="#62BDF3"/>
<path d="M327.836 53.5068C327.696 53.0418 327.962 52.5518 328.428 52.4118L333.913 50.7618C334.38 50.6218 334.871 50.8868 335.011 51.3518C335.152 51.8168 334.886 52.3068 334.42 52.4468L328.934 54.0968C328.473 54.2368 327.977 53.9768 327.836 53.5068Z" fill="#62BDF3"/>
<path d="M336.846 68.0617C336.766 68.0617 336.686 68.0517 336.606 68.0267C334.706 67.4917 332.855 66.7567 331.116 65.8317C330.684 65.6017 330.524 65.0717 330.75 64.6417C330.98 64.2117 331.512 64.0517 331.943 64.2767C333.577 65.1417 335.307 65.8317 337.087 66.3317C337.558 66.4617 337.829 66.9517 337.699 67.4167C337.589 67.8067 337.233 68.0617 336.846 68.0617Z" fill="#62BDF3"/>
<path d="M220.506 71.4033L217.739 64.8783L210.779 63.4533C209.987 63.2933 209.726 62.2933 210.338 61.7633L215.708 57.1233L214.916 50.0833C214.826 49.2833 215.698 48.7233 216.39 49.1433L222.477 52.7983L228.95 49.8733C229.687 49.5383 230.489 50.1933 230.303 50.9783L228.694 57.8783L233.482 63.1133C234.029 63.7083 233.653 64.6683 232.845 64.7383L225.766 65.3483L222.256 71.5083C221.855 72.2083 220.822 72.1483 220.506 71.4033Z" fill="#7772D6"/>
<path d="M359.992 403L358.854 407.565L351.283 406.555L348.791 413.03L343 413.195L343.085 416.115L350.832 415.895L353.188 409.76L361.07 410.815L362.78 403.94L359.992 403Z" fill="#9ED16F"/>
<path d="M27.2048 504.09L-4.92678 498.124C-5.57252 498.005 -5.99903 497.385 -5.87945 496.741L-1.85353 475.184C-1.73395 474.54 -1.11213 474.115 -0.466389 474.234L31.6652 480.201C32.3109 480.32 32.7374 480.94 32.6178 481.584L28.5919 503.14C28.4723 503.784 27.8505 504.21 27.2048 504.09Z" fill="#3797DB"/>
<path d="M11.9103 479.449L2.13255 477.633C1.48681 477.513 1.0603 476.893 1.17988 476.249L1.79373 472.97C1.91331 472.326 2.53514 471.901 3.18088 472.02L12.9626 473.837C13.6084 473.956 14.0349 474.576 13.9153 475.22L13.3015 478.499C13.1779 479.143 12.5561 479.569 11.9103 479.449Z" fill="#3797DB"/>
<path d="M28.6677 503.264C28.5003 503.852 27.9103 504.218 27.3045 504.106L-5.03039 498.104C-5.63228 497.993 -6.05082 497.444 -5.99502 496.836L-4.30094 477.514C-4.27304 477.18 -4.10164 476.874 -3.83458 476.675C-3.56751 476.472 -3.2287 476.393 -2.89785 476.452L33.0284 483.122C33.3553 483.182 33.6423 483.381 33.8216 483.663C33.997 483.945 34.0449 484.291 33.9572 484.609L28.6677 503.264Z" fill="#62BDF3"/>
<path d="M153.413 63.88L146.494 65.765L145 57.4L147.266 57L148.314 62.89L152.807 61.665L153.413 63.88Z" fill="#9ED16F"/>
<path d="M39.2328 45.6193C40.9676 45.4793 43.625 46.2393 44.8183 47.0443C44.9988 47.2093 46.3676 47.7543 47.7965 50.1143L47.4806 50.3393C45.9765 48.7693 44.9637 48.4143 43.7603 48.0543C41.7748 47.5443 39.7693 47.9243 39.6038 48.0143L39.2328 45.6193Z" fill="#7772D6"/>
<path d="M47.6411 50.2293C47.6411 50.2293 37.0819 51.9843 38.0646 60.2143C39.0473 68.4393 50.1882 74.8393 60.1307 69.7543C73.5078 62.9093 68.2231 45.5093 58.7017 44.1643C49.1854 42.8143 47.6411 50.2293 47.6411 50.2293Z" fill="#8AC751"/>
<path d="M52.1185 46.6042C52.1185 46.6042 54.8711 43.7842 60.9079 46.3492C66.9446 48.9142 67.3808 60.8792 61.9959 60.1842C56.616 59.4942 47.8166 48.3292 52.1185 46.6042Z" fill="#8AC751"/>
<path d="M79.5213 170.583L43.6052 183.36C42.4483 183.774 41.1754 183.17 40.7608 182.016L34.1307 163.483C33.716 162.33 34.3214 161.06 35.4782 160.647L71.3944 147.87C72.5512 147.457 73.8242 148.06 74.2388 149.214L80.8689 167.747C81.2835 168.9 80.6823 170.17 79.5213 170.583Z" fill="#8C87E2"/>
<path d="M55.7168 165.82C57.0395 169.512 55.1073 173.573 51.4045 174.892C47.7018 176.211 43.63 174.284 42.3073 170.591C40.9846 166.899 42.9169 162.838 46.6196 161.519C50.3223 160.2 54.3941 162.127 55.7168 165.82Z" fill="white"/>
<path d="M50.0321 164.827C50.4219 165.915 49.8538 167.114 48.7592 167.503C47.6687 167.891 46.4662 167.325 46.0765 166.233C45.6867 165.146 46.2548 163.947 47.3494 163.558C48.4399 163.169 49.6424 163.736 50.0321 164.827Z" fill="#7772D6"/>
<path d="M53.4528 170.662L47.1337 172.907L46.8808 172.2C46.4206 170.91 47.0923 169.492 48.3859 169.033L50.0196 168.454C51.3133 167.995 52.7355 168.665 53.1958 169.955L53.4528 170.662Z" fill="#7772D6"/>
<path d="M56.6 161.945C56.2185 161.945 55.8744 161.706 55.7458 161.346C55.5758 160.875 55.8246 160.358 56.2973 160.188L71.9997 154.602C72.0992 154.569 72.1988 154.548 72.3066 154.548C72.688 154.548 73.0322 154.788 73.1607 155.148C73.3307 155.619 73.0819 156.136 72.6093 156.305L56.9068 161.892C56.8073 161.929 56.7037 161.945 56.6 161.945Z" fill="white"/>
<path d="M60.8418 165.849C60.4603 165.849 60.1161 165.609 59.9876 165.249C59.8176 164.778 60.0664 164.261 60.5391 164.091L72.8 159.729C72.8995 159.696 72.999 159.675 73.1068 159.675C73.4883 159.675 73.8324 159.915 73.961 160.275C74.0439 160.502 74.0315 160.746 73.9278 160.965C73.8241 161.185 73.6417 161.35 73.4136 161.429L61.1527 165.791C61.0449 165.832 60.9454 165.849 60.8418 165.849Z" fill="white"/>
<path d="M280.087 176.934L272.14 157.044C271.739 156.044 272.23 154.909 273.233 154.509L301.837 143.139C302.84 142.739 303.978 143.229 304.379 144.229L312.326 164.119C312.727 165.119 312.236 166.254 311.233 166.654L282.629 178.024C281.626 178.424 280.488 177.934 280.087 176.934Z" fill="#B9E1EE"/>
<path d="M307.072 165.435L299.927 147.565C299.812 147.28 299.952 146.955 300.238 146.84C300.523 146.725 300.849 146.865 300.965 147.155L308.109 165.025C308.225 165.31 308.084 165.64 307.794 165.75C307.513 165.865 307.187 165.725 307.072 165.435Z" fill="#3797DB"/>
<path d="M303.672 163.079L297.806 148.404C297.691 148.119 297.831 147.794 298.122 147.679C298.408 147.564 298.734 147.704 298.849 147.994L304.715 162.669C304.83 162.954 304.69 163.279 304.404 163.394C304.108 163.509 303.782 163.369 303.672 163.079Z" fill="#3797DB"/>
<path d="M302.825 167.124L295.68 149.254C295.565 148.969 295.705 148.639 295.996 148.529C296.282 148.414 296.608 148.554 296.723 148.844L303.868 166.714C303.983 166.999 303.843 167.324 303.552 167.439C303.266 167.549 302.94 167.409 302.825 167.124Z" fill="#3797DB"/>
<path d="M299.069 163.889L293.554 150.094C293.439 149.809 293.579 149.479 293.87 149.369C294.156 149.254 294.482 149.394 294.597 149.679L300.112 163.474C300.228 163.759 300.087 164.089 299.796 164.199C299.511 164.319 299.185 164.179 299.069 163.889Z" fill="#3797DB"/>
<path d="M306.881 145.659L306.736 145.299C306.681 145.164 306.54 145.099 306.415 145.149L303.702 146.229C303.577 146.279 303.517 146.424 303.572 146.559L303.717 146.919C303.772 147.054 303.913 147.119 304.038 147.069L306.751 145.989C306.876 145.939 306.936 145.789 306.881 145.659Z" fill="#3797DB"/>
<path d="M307.498 147.199L307.352 146.839C307.297 146.704 307.157 146.639 307.031 146.689L304.319 147.769C304.194 147.819 304.133 147.964 304.189 148.099L304.334 148.459C304.389 148.589 304.53 148.659 304.655 148.609L307.372 147.529C307.493 147.479 307.548 147.329 307.498 147.199Z" fill="#3797DB"/>
<path d="M308.109 148.734L307.964 148.374C307.909 148.244 307.769 148.174 307.643 148.224L304.931 149.304C304.805 149.354 304.745 149.499 304.8 149.634L304.946 149.994C305.001 150.124 305.141 150.194 305.267 150.144L307.979 149.064C308.104 149.014 308.165 148.869 308.109 148.734Z" fill="#3797DB"/>
<path d="M308.726 150.274L308.581 149.914C308.526 149.779 308.385 149.714 308.26 149.764L305.547 150.844C305.422 150.894 305.362 151.039 305.417 151.174L305.562 151.534C305.618 151.664 305.758 151.734 305.883 151.684L308.596 150.604C308.721 150.554 308.781 150.409 308.726 150.274Z" fill="#3797DB"/>
<path d="M309.343 151.814L309.198 151.454C309.142 151.319 309.002 151.254 308.877 151.304L306.164 152.384C306.039 152.434 305.979 152.584 306.034 152.714L306.179 153.074C306.234 153.204 306.375 153.274 306.5 153.224L309.213 152.144C309.338 152.094 309.393 151.949 309.343 151.814Z" fill="#3797DB"/>
<path d="M309.96 153.354L309.814 152.994C309.759 152.859 309.619 152.794 309.493 152.844L306.781 153.924C306.655 153.974 306.595 154.119 306.65 154.254L306.796 154.614C306.851 154.749 306.991 154.814 307.117 154.764L309.829 153.684C309.95 153.634 310.01 153.489 309.96 153.354Z" fill="#3797DB"/>
<path d="M310.571 154.894L310.426 154.534C310.371 154.399 310.23 154.334 310.105 154.384L307.393 155.464C307.267 155.514 307.207 155.659 307.262 155.794L307.408 156.154C307.463 156.284 307.603 156.354 307.728 156.304L310.441 155.224C310.566 155.174 310.626 155.024 310.571 154.894Z" fill="#3797DB"/>
<path d="M311.188 156.434L311.043 156.074C310.987 155.944 310.847 155.874 310.722 155.924L308.009 157.004C307.884 157.054 307.824 157.199 307.879 157.334L308.024 157.694C308.079 157.829 308.22 157.894 308.345 157.844L311.058 156.764C311.183 156.714 311.243 156.564 311.188 156.434Z" fill="#3797DB"/>
<path d="M311.805 157.974L311.659 157.614C311.604 157.479 311.464 157.414 311.338 157.464L308.626 158.544C308.501 158.594 308.44 158.739 308.496 158.874L308.641 159.234C308.696 159.369 308.837 159.434 308.962 159.384L311.674 158.304C311.8 158.254 311.855 158.104 311.805 157.974Z" fill="#3797DB"/>
<path d="M312.416 159.509L312.271 159.149C312.216 159.019 312.075 158.949 311.95 158.999L309.238 160.079C309.112 160.129 309.052 160.274 309.107 160.409L309.253 160.769C309.308 160.904 309.448 160.969 309.574 160.919L312.286 159.839C312.411 159.789 312.472 159.644 312.416 159.509Z" fill="#3797DB"/>
<path d="M313.033 161.049L312.888 160.689C312.833 160.559 312.692 160.489 312.567 160.539L309.854 161.619C309.729 161.669 309.669 161.814 309.724 161.949L309.869 162.309C309.925 162.444 310.065 162.509 310.19 162.459L312.903 161.379C313.028 161.329 313.088 161.184 313.033 161.049Z" fill="#3797DB"/>
<path d="M313.65 162.589L313.504 162.229C313.449 162.099 313.309 162.029 313.184 162.079L310.471 163.159C310.346 163.209 310.286 163.354 310.341 163.489L310.486 163.849C310.541 163.984 310.682 164.049 310.807 163.999L313.519 162.919C313.645 162.869 313.7 162.724 313.65 162.589Z" fill="#3797DB"/>
<path d="M321.151 161.005L309.799 177.125C309.774 177.16 309.754 177.2 309.739 177.245L308.581 180.785C308.445 181.195 308.922 181.54 309.273 181.275L312.311 178.99C312.346 178.96 312.381 178.93 312.406 178.89L323.788 162.725C323.933 162.52 323.878 162.23 323.663 162.095L321.752 160.88C321.552 160.76 321.286 160.81 321.151 161.005Z" fill="#3797DB"/>
<path d="M312.391 178.915L312.361 178.955L309.428 181.16L308.631 180.625L309.729 177.265C310.591 177.735 311.619 178.215 312.391 178.915Z" fill="#B9E1EE"/>
<path d="M184.255 117.767C185.889 119.067 188.732 123.252 192.357 126.192C194.478 127.912 196.113 127.472 198.82 127.802C211.671 129.352 208.186 131.972 209.73 132.227C209.294 133.232 205.288 141.717 204.541 143.432C203.849 145.012 202.656 145.722 200.931 145.482C198.274 145.117 195.591 144.842 192.974 144.277C186.265 142.827 182.535 139.482 177.732 135.422C176.458 134.342 176.142 133.002 176.804 131.477C179.883 124.387 183.924 118.422 184.255 117.767Z" fill="#3B77BE"/>
<path d="M211.124 142.432C211.064 145.227 211.28 145.787 210.076 145.362C209.354 145.107 208.652 144.777 207.966 144.422C207.484 144.172 207.464 143.847 207.855 143.452C208.427 142.882 209.013 142.322 209.58 141.772C209.164 140.677 209.64 139.402 210.668 138.802C210.879 138.682 210.723 138.937 212.513 134.832C206.597 134.102 202.42 133.617 195.2 132.732C193.27 132.497 191.555 131.747 190.061 130.502C184.907 126.197 179.747 121.897 174.593 117.587C173.896 117.002 173.806 116.147 174.362 115.487C174.789 114.982 175.35 114.957 175.952 115.032C177.601 115.237 193.756 117.237 195.396 117.432C197.552 117.682 199.447 118.492 201.117 119.882C206.181 124.112 211.26 128.327 216.334 132.552C217.031 133.132 217.216 133.662 216.975 134.307C216.705 135.017 216.118 135.352 215.236 135.162C214.594 135.022 214.313 135.217 214.092 135.807C213.1 138.477 212.403 139.067 212.643 140.047C212.834 140.802 211.937 142.107 211.124 142.432Z" fill="#3797DB"/>
<path d="M343.74 506.265L324.683 489.305C323.444 488.205 323.961 485.935 325.67 484.97L340.882 476.38C341.855 475.83 342.953 475.88 343.66 476.51L362.718 493.47C363.956 494.57 363.44 496.84 361.73 497.805L346.518 506.395C345.54 506.94 344.447 506.89 343.74 506.265Z" fill="#62BDF3"/>
<path d="M342.838 492.77L341.248 479.74C341.188 479.24 341.554 478.71 342.061 478.55C342.572 478.39 343.033 478.67 343.094 479.165L344.558 491.155L359.008 494.64C359.479 494.755 359.695 495.26 359.494 495.77C359.288 496.28 358.742 496.605 358.271 496.49L342.838 492.77Z" fill="white"/>
<path d="M98.4172 97L100.383 100.885L104.835 100.74L106.735 105.255L111.428 103.645L113.8 108.65L118.307 107.7L121.381 112.145L119.691 113.305L117.395 109.98L112.642 110.985L110.36 106.17L105.587 107.81L103.491 102.83L99.1442 102.97L97.3192 99.37L94.4863 100.055L94 98.07L98.4172 97Z" fill="#62BDF3"/>
<path d="M344.964 312L342.993 315.885L338.541 315.74L336.641 320.25L331.948 318.64L329.576 323.65L325.074 322.7L322 327.145L323.685 328.305L325.986 324.98L330.739 325.985L333.021 321.17L337.789 322.81L339.885 317.83L344.232 317.97L346.057 314.365L348.895 315.055L349.376 313.07L344.964 312Z" fill="#62BDF3"/>
<path d="M18.4122 320L20.3827 323.885L24.835 323.74L26.7353 328.25L31.4283 326.64L33.7998 331.65L38.3073 330.7L41.3808 335.145L39.6912 336.305L37.3948 332.98L32.6416 333.985L30.3603 329.17L25.5871 330.805L23.4913 325.83L19.1443 325.97L17.3192 322.365L14.4863 323.055L14 321.07L18.4122 320Z" fill="#62BDF3"/>
<path d="M29.6223 619.965L33.6685 621.605L36.9275 618.58L41.3297 620.74L43.8066 616.45L48.8957 618.67L51.6683 615L56.9129 616.34L56.4065 618.32L52.4806 617.32L49.5575 621.19L44.6689 619.055L42.152 623.415L37.2885 621.035L34.1047 623.99L30.3543 622.47L28.6696 624.845L27 623.665L29.6223 619.965Z" fill="#9ED16F"/>
</g>
</g>
</g>
<defs>
<linearGradient id="paint0_linear_105_190" x1="314.919" y1="766.951" x2="258.051" y2="766.951" gradientUnits="userSpaceOnUse">
<stop stop-color="#3949AB"/>
<stop offset="1" stop-color="#5C6BC0"/>
</linearGradient>
<linearGradient id="paint1_linear_105_190" x1="297.334" y1="755.403" x2="321.365" y2="820.106" gradientUnits="userSpaceOnUse">
<stop stop-color="#3949AB"/>
<stop offset="1" stop-color="#5C6BC0"/>
</linearGradient>
<linearGradient id="paint2_linear_105_190" x1="320.924" y1="721.078" x2="250.292" y2="650.25" gradientUnits="userSpaceOnUse">
<stop stop-color="#C5CAE9"/>
<stop offset="1" stop-color="white"/>
</linearGradient>
<linearGradient id="paint3_linear_105_190" x1="285.347" y1="752.487" x2="334.378" y2="634.268" gradientUnits="userSpaceOnUse">
<stop stop-color="#3949AB"/>
<stop offset="1" stop-color="#5C6BC0"/>
</linearGradient>
<linearGradient id="paint4_linear_105_190" x1="241.654" y1="686.061" x2="343.286" y2="686.061" gradientUnits="userSpaceOnUse">
<stop stop-color="#C5CAE9"/>
<stop offset="1" stop-color="#C5CAE9"/>
</linearGradient>
<linearGradient id="paint5_linear_105_190" x1="323.331" y1="720.711" x2="348.131" y2="720.711" gradientUnits="userSpaceOnUse">
<stop stop-color="#C5CAE9"/>
<stop offset="1" stop-color="#C5CAE9"/>
</linearGradient>
<linearGradient id="paint6_linear_105_190" x1="215.206" y1="647.904" x2="246.836" y2="647.904" gradientUnits="userSpaceOnUse">
<stop stop-color="#C5CAE9"/>
<stop offset="1" stop-color="#C5CAE9"/>
</linearGradient>
<linearGradient id="paint7_linear_105_190" x1="322.529" y1="700.026" x2="328.381" y2="700.026" gradientUnits="userSpaceOnUse">
<stop stop-color="#C5CAE9"/>
<stop offset="1" stop-color="#C5CAE9"/>
</linearGradient>
<linearGradient id="paint8_linear_105_190" x1="278.996" y1="716.041" x2="283.687" y2="716.041" gradientUnits="userSpaceOnUse">
<stop stop-color="#C5CAE9"/>
<stop offset="1" stop-color="#C5CAE9"/>
</linearGradient>
<linearGradient id="paint9_linear_105_190" x1="315.713" y1="702.661" x2="320.227" y2="702.661" gradientUnits="userSpaceOnUse">
<stop stop-color="#C5CAE9"/>
<stop offset="1" stop-color="#C5CAE9"/>
</linearGradient>
<linearGradient id="paint10_linear_105_190" x1="184.276" y1="778.894" x2="184.276" y2="758.786" gradientUnits="userSpaceOnUse">
<stop stop-color="#843AC3"/>
<stop offset="1" stop-color="#A44DFF"/>
</linearGradient>
<linearGradient id="paint11_linear_105_190" x1="227.271" y1="768.84" x2="182.596" y2="768.84" gradientUnits="userSpaceOnUse">
<stop stop-color="white"/>
<stop offset="1" stop-color="#C5CAE9"/>
</linearGradient>
<linearGradient id="paint12_linear_105_190" x1="182.596" y1="764.148" x2="227.271" y2="764.148" gradientUnits="userSpaceOnUse">
<stop stop-color="#C5CAE9"/>
<stop offset="1" stop-color="#C5CAE9"/>
</linearGradient>
<linearGradient id="paint13_linear_105_190" x1="180.619" y1="768.84" x2="233.202" y2="768.84" gradientUnits="userSpaceOnUse">
<stop stop-color="#843AC3"/>
<stop offset="1" stop-color="#A44DFF"/>
</linearGradient>
<linearGradient id="paint14_linear_105_190" x1="217.241" y1="773.043" x2="217.241" y2="766.505" gradientUnits="userSpaceOnUse">
<stop stop-color="#843AC3"/>
<stop offset="1" stop-color="#A44DFF"/>
</linearGradient>
<linearGradient id="paint15_linear_105_190" x1="176.693" y1="740.351" x2="176.693" y2="715.513" gradientUnits="userSpaceOnUse">
<stop stop-color="#BF178F"/>
<stop offset="1" stop-color="#FF7FCE"/>
</linearGradient>
<linearGradient id="paint16_linear_105_190" x1="136.07" y1="727.932" x2="194.385" y2="727.932" gradientUnits="userSpaceOnUse">
<stop stop-color="white"/>
<stop offset="1" stop-color="#C5CAE9"/>
</linearGradient>
<linearGradient id="paint17_linear_105_190" x1="136.07" y1="720.874" x2="194.385" y2="720.874" gradientUnits="userSpaceOnUse">
<stop stop-color="#C5CAE9"/>
<stop offset="1" stop-color="#C5CAE9"/>
</linearGradient>
<linearGradient id="paint18_linear_105_190" x1="130.139" y1="727.932" x2="196.609" y2="727.932" gradientUnits="userSpaceOnUse">
<stop stop-color="#FF7FCE"/>
<stop offset="1" stop-color="#BF178F"/>
</linearGradient>
<linearGradient id="paint19_linear_105_190" x1="245.391" y1="741.433" x2="151.363" y2="741.433" gradientUnits="userSpaceOnUse">
<stop stop-color="#3949AB"/>
<stop offset="1" stop-color="#5C6BC0"/>
</linearGradient>
<linearGradient id="paint20_linear_105_190" x1="245.391" y1="757.603" x2="151.363" y2="757.603" gradientUnits="userSpaceOnUse">
<stop stop-color="#3949AB"/>
<stop offset="1" stop-color="#5C6BC0"/>
</linearGradient>
<linearGradient id="paint21_linear_105_190" x1="243.237" y1="749.519" x2="183.324" y2="749.519" gradientUnits="userSpaceOnUse">
<stop stop-color="white"/>
<stop offset="1" stop-color="#C5CAE9"/>
</linearGradient>
<linearGradient id="paint22_linear_105_190" x1="183.306" y1="749.519" x2="155.514" y2="749.519" gradientUnits="userSpaceOnUse">
<stop stop-color="white"/>
<stop offset="1" stop-color="#C5CAE9"/>
</linearGradient>
<linearGradient id="paint23_linear_105_190" x1="155.514" y1="744.71" x2="241.24" y2="744.71" gradientUnits="userSpaceOnUse">
<stop stop-color="#C5CAE9"/>
<stop offset="1" stop-color="#C5CAE9"/>
</linearGradient>
<linearGradient id="paint24_linear_105_190" x1="317.771" y1="670.707" x2="317.771" y2="692.489" gradientUnits="userSpaceOnUse">
<stop stop-color="#FF7FCE"/>
<stop offset="1" stop-color="#BF178F"/>
</linearGradient>
<linearGradient id="paint25_linear_105_190" x1="142.141" y1="695.423" x2="211.244" y2="695.423" gradientUnits="userSpaceOnUse">
<stop stop-color="#3949AB"/>
<stop offset="1" stop-color="#5C6BC0"/>
</linearGradient>
<linearGradient id="paint26_linear_105_190" x1="157.386" y1="704.738" x2="195.999" y2="704.738" gradientUnits="userSpaceOnUse">
<stop stop-color="#3949AB"/>
<stop offset="1" stop-color="#5C6BC0"/>
</linearGradient>
<linearGradient id="paint27_linear_105_190" x1="199.552" y1="723.856" x2="204.764" y2="723.856" gradientUnits="userSpaceOnUse">
<stop stop-color="white"/>
<stop offset="1" stop-color="#C5CAE9"/>
</linearGradient>
<linearGradient id="paint28_linear_105_190" x1="157.386" y1="699.11" x2="195.999" y2="699.11" gradientUnits="userSpaceOnUse">
<stop stop-color="#3949AB"/>
<stop offset="1" stop-color="#5C6BC0"/>
</linearGradient>
<clipPath id="clip0_105_190">
<rect width="361" height="800" fill="white" transform="translate(-1)"/>
</clipPath>
</defs>
</svg>
