<svg width="512" height="512" viewBox="0 0 512 512" fill="none" xmlns="http://www.w3.org/2000/svg">
<path d="M256.546 238.963V430.979H24.972C11.177 430.978 0 419.801 0 406.007V263.934C0 250.14 11.177 238.962 24.972 238.962L256.546 238.963Z" fill="#BBEC6C"/>
<path d="M512 263.934V406.006C512 419.8 500.823 430.978 487.028 430.978H256.546V238.963H487.028C500.823 238.963 512 250.14 512 263.934Z" fill="#FE76A8"/>
<path d="M487.028 238.963H456.038C469.832 238.963 481.01 250.141 481.01 263.935V406.007C481.01 419.801 469.832 430.979 456.038 430.979H487.028C500.822 430.979 512 419.801 512 406.007V263.934C512 250.14 500.823 238.963 487.028 238.963Z" fill="#FE5694"/>
<path d="M372.823 228.008C372.823 163.922 321.22 111.888 257.298 111.193C194.352 110.508 141.418 160.967 139.249 223.88C138.177 254.972 149.265 283.457 168.122 304.962C190.874 330.909 204.36 363.667 204.36 398.176V398.519L250.515 420.935L307.64 398.519V398.161C307.64 364.445 319.633 331.581 342.352 306.668C361.279 285.914 372.823 258.313 372.823 228.008Z" fill="#FEE97D"/>
<path d="M257.298 111.193C251.72 111.134 246.144 111.478 240.616 112.224C297.756 119.853 341.832 168.781 341.832 228.008C341.832 258.313 330.288 285.914 311.361 306.669C288.642 331.582 276.649 364.446 276.649 398.162V398.52L287.943 406.249L307.639 398.52V398.162C307.639 364.446 319.632 331.582 342.351 306.669C361.278 285.914 372.822 258.313 372.822 228.008C372.823 163.922 321.219 111.888 257.298 111.193Z" fill="#FEE45A"/>
<path d="M242.779 406.248C241.013 406.246 239.302 405.639 237.929 404.529C236.556 403.419 235.605 401.872 235.233 400.146L218.347 321.741C217.938 319.746 218.332 317.671 219.445 315.965C220.558 314.26 222.299 313.063 224.29 312.634C226.28 312.206 228.36 312.58 230.076 313.676C231.792 314.772 233.006 316.502 233.454 318.488L250.34 396.893C250.583 398.021 250.571 399.188 250.303 400.311C250.036 401.433 249.521 402.481 248.796 403.378C248.071 404.275 247.154 404.999 246.113 405.495C245.072 405.992 243.933 406.249 242.779 406.248ZM269.221 406.248C268.067 406.249 266.928 405.992 265.887 405.495C264.846 404.999 263.929 404.275 263.204 403.378C262.479 402.481 261.963 401.433 261.696 400.311C261.429 399.189 261.416 398.021 261.659 396.893L278.545 318.488C279.008 316.517 280.226 314.807 281.937 313.725C283.648 312.643 285.716 312.276 287.695 312.702C289.674 313.128 291.407 314.314 292.521 316.004C293.635 317.694 294.041 319.754 293.652 321.741L276.766 400.146C276.394 401.872 275.443 403.418 274.07 404.528C272.698 405.639 270.986 406.245 269.221 406.248Z" fill="#FFF9E2"/>
<path d="M307.643 423.167L301.586 432.727L307.643 438.62V440.464C307.643 445.842 306.819 451.023 305.304 455.886L288.821 461.933L297.392 471.339C287.976 483.948 272.936 492.107 255.999 492.107C250.744 492.115 245.518 491.316 240.505 489.738C230.049 486.452 221.024 479.931 214.606 471.339L219.788 463.613L206.694 455.887C205.14 450.894 204.352 445.694 204.355 440.465V438.621L213.4 429.834L204.355 423.169V398.517L276.648 398.522L307.643 423.167Z" fill="#7CA1B1"/>
<path d="M307.643 423.167L301.586 432.727L307.643 438.62V440.464C307.643 445.842 306.819 451.023 305.304 455.886L288.821 461.933L297.392 471.339C287.976 483.948 272.936 492.107 255.999 492.107C250.744 492.115 245.518 491.316 240.505 489.738C261.449 483.155 276.654 463.582 276.654 440.464V398.515H307.642V423.167H307.643Z" fill="#678D98"/>
<path d="M249.451 270.019H194.904C194.044 270.019 193.192 269.85 192.398 269.52C191.603 269.191 190.881 268.709 190.273 268.101C189.665 267.493 189.183 266.771 188.854 265.976C188.524 265.182 188.355 264.33 188.355 263.47V189.484C188.355 188.624 188.524 187.772 188.854 186.978C189.183 186.183 189.665 185.461 190.273 184.853C190.881 184.245 191.603 183.763 192.398 183.434C193.192 183.104 194.044 182.935 194.904 182.935H235.52C246.831 182.935 256.001 192.105 256.001 203.416L265.421 238.963L256 263.47C256 265.207 255.31 266.873 254.082 268.101C252.854 269.329 251.188 270.019 249.451 270.019Z" fill="#FFF5C6"/>
<path d="M317.097 270.019H262.55C260.813 270.019 259.147 269.329 257.919 268.101C256.691 266.873 256.001 265.207 256.001 263.47V203.416C256.001 192.105 265.171 182.935 276.482 182.935H317.098C318.835 182.935 320.501 183.625 321.729 184.853C322.957 186.081 323.647 187.747 323.647 189.484V263.47C323.646 265.207 322.956 266.873 321.728 268.101C320.5 269.329 318.834 270.019 317.097 270.019Z" fill="#FFF9E2"/>
<path d="M317.097 270.019H262.55C260.813 270.019 259.147 269.329 257.919 268.101C256.691 266.873 256.001 265.207 256.001 263.47V203.416C256.001 192.105 265.171 182.935 276.482 182.935H317.098C318.835 182.935 320.501 183.625 321.729 184.853C322.957 186.081 323.647 187.747 323.647 189.484V263.47C323.646 265.207 322.956 266.873 321.728 268.101C320.5 269.329 318.834 270.019 317.097 270.019Z" fill="#FFF9E2"/>
<path d="M317.097 270.019H262.55C260.813 270.019 259.147 269.329 257.919 268.101C256.691 266.873 256.001 265.207 256.001 263.47V203.416C256.001 192.105 265.171 182.935 276.482 182.935H317.098C318.835 182.935 320.501 183.625 321.729 184.853C322.957 186.081 323.647 187.747 323.647 189.484V263.47C323.646 265.207 322.956 266.873 321.728 268.101C320.5 269.329 318.834 270.019 317.097 270.019Z" fill="#FFF9E2"/>
<path d="M69.74 373.004C67.035 372.413 64.596 370.949 62.638 368.991L40.526 346.879C35.095 341.447 35.095 332.642 40.527 327.211C45.958 321.778 54.763 321.778 60.196 327.211L70.695 337.711C70.9631 337.979 71.2814 338.192 71.6318 338.337C71.9822 338.482 72.3577 338.557 72.737 338.557C73.1163 338.557 73.4918 338.482 73.8422 338.337C74.1926 338.192 74.5109 337.979 74.779 337.711L107.375 305.114C112.67 299.819 121.296 299.331 126.834 304.371C132.748 309.752 132.91 318.914 127.321 324.504L82.57 369.255C80.9181 370.907 78.8769 372.116 76.6347 372.771C74.3924 373.426 72.0213 373.506 69.74 373.004Z" fill="#7CA1B1"/>
<path d="M443 339.775C442.642 339.417 442.357 338.991 442.163 338.523C441.969 338.054 441.869 337.552 441.869 337.045C441.869 336.539 441.969 336.037 442.163 335.568C442.357 335.1 442.642 334.674 443 334.316L456.529 320.787C461.961 315.356 461.961 306.551 456.529 301.119C451.099 295.687 442.293 295.687 436.861 301.119L423.331 314.649C422.973 315.007 422.547 315.292 422.079 315.486C421.61 315.68 421.108 315.78 420.601 315.78C420.095 315.78 419.593 315.68 419.124 315.486C418.656 315.292 418.23 315.007 417.872 314.649L404.62 301.397C399.325 296.102 390.699 295.615 385.16 300.656C379.247 306.038 379.085 315.2 384.674 320.788L398.203 334.317C398.561 334.675 398.846 335.101 399.04 335.569C399.234 336.038 399.334 336.54 399.334 337.047C399.334 337.553 399.234 338.055 399.04 338.524C398.846 338.992 398.561 339.418 398.203 339.776L384.674 353.305C379.242 358.736 379.242 367.541 384.674 372.973C385.964 374.266 387.497 375.292 389.184 375.991C390.872 376.69 392.681 377.049 394.508 377.046C398.066 377.046 401.627 375.688 404.342 372.973L417.872 359.443C418.23 359.085 418.656 358.8 419.124 358.606C419.593 358.412 420.095 358.312 420.601 358.312C421.108 358.312 421.61 358.412 422.079 358.606C422.547 358.8 422.973 359.085 423.331 359.443L436.861 372.973C439.576 375.688 443.136 377.046 446.695 377.046C450.254 377.046 453.814 375.688 456.529 372.973C461.961 367.541 461.961 358.736 456.529 353.305L443 339.775Z" fill="#EEF5F6"/>
<path d="M70.747 174.467C69.6796 174.467 68.6238 174.245 67.647 173.814L48.292 165.325C46.4155 164.502 44.9428 162.967 44.1979 161.058C43.453 159.149 43.4969 157.023 44.32 155.146C45.1431 153.269 46.678 151.797 48.5869 151.052C50.4958 150.307 52.6225 150.351 54.499 151.174L73.854 159.663C75.4803 160.375 76.8119 161.625 77.6249 163.203C78.4379 164.781 78.6827 166.591 78.3181 168.328C77.9534 170.065 77.0017 171.624 75.6228 172.742C74.244 173.86 72.5222 174.469 70.747 174.467Z" fill="#FFF5C6"/>
<path d="M107.171 118.717C105.232 118.719 103.364 117.99 101.94 116.675L86.391 102.361C85.6445 101.674 85.0407 100.847 84.614 99.9262C84.1873 99.0058 83.946 98.0103 83.9041 96.9966C83.8621 95.983 84.0202 94.971 84.3694 94.0184C84.7185 93.0659 85.2519 92.1914 85.939 91.445C87.3271 89.9375 89.257 89.0431 91.3044 88.9583C93.3518 88.8735 95.3491 89.6054 96.857 90.993L112.406 105.307C113.551 106.36 114.351 107.735 114.702 109.25C115.053 110.766 114.938 112.352 114.372 113.801C113.806 115.25 112.816 116.495 111.531 117.372C110.246 118.249 108.727 118.718 107.171 118.717Z" fill="#FFF9E2"/>
<path d="M159.729 77.818C158.335 77.8194 156.967 77.4437 155.77 76.7307C154.572 76.0177 153.59 74.9939 152.927 73.768L142.868 55.18C142.385 54.2877 142.082 53.309 141.978 52.2998C141.873 51.2905 141.968 50.2706 142.258 49.2981C142.547 48.3257 143.026 47.4198 143.665 46.6322C144.305 45.8446 145.094 45.1908 145.986 44.708C146.878 44.2249 147.857 43.9223 148.866 43.8175C149.875 43.7127 150.896 43.8078 151.868 44.0974C152.84 44.3869 153.746 44.8652 154.534 45.505C155.322 46.1448 155.975 46.9335 156.458 47.826L166.517 66.414C167.154 67.5904 167.475 68.912 167.448 70.2495C167.421 71.587 167.047 72.8946 166.362 74.0442C165.678 75.1938 164.707 76.1459 163.544 76.8074C162.381 77.469 161.067 77.8172 159.729 77.818Z" fill="#FFF5C6"/>
<path d="M222.696 56.196C220.869 56.1935 219.102 55.5435 217.708 54.3616C216.315 53.1797 215.386 51.5422 215.085 49.74L211.606 28.894C211.439 27.8932 211.471 26.8694 211.699 25.8809C211.928 24.8924 212.349 23.9586 212.939 23.1329C213.528 22.3072 214.275 21.6057 215.135 21.0685C215.996 20.5313 216.954 20.1689 217.955 20.002C222.159 19.292 226.145 22.142 226.847 26.351L230.326 47.197C230.511 48.3048 230.453 49.4397 230.154 50.5225C229.856 51.6053 229.325 52.6101 228.599 53.4668C227.873 54.3235 226.968 55.0115 225.949 55.4828C224.929 55.9542 223.819 56.1976 222.696 56.196Z" fill="#FFF9E2"/>
<path d="M289.305 56.196C288.182 56.1974 287.072 55.9539 286.052 55.4825C285.033 55.0111 284.129 54.3231 283.402 53.4665C282.676 52.6098 282.145 51.6051 281.847 50.5223C281.549 49.4396 281.49 48.3048 281.675 47.197L285.154 26.351C285.856 22.142 289.834 19.291 294.046 20.002C296.067 20.3393 297.871 21.4656 299.062 23.1331C300.253 24.8007 300.732 26.8729 300.395 28.894L296.916 49.74C296.615 51.5423 295.686 53.1797 294.293 54.3616C292.899 55.5435 291.132 56.1935 289.305 56.196Z" fill="#FFF5C6"/>
<path d="M352.271 77.818C351.03 77.818 349.77 77.518 348.601 76.885C347.709 76.4023 346.92 75.7484 346.28 74.9608C345.641 74.1732 345.162 73.2674 344.873 72.2949C344.583 71.3225 344.488 70.3025 344.593 69.2933C344.697 68.284 345 67.3053 345.483 66.413L355.542 47.825C356.025 46.9324 356.678 46.1436 357.466 45.5038C358.253 44.8639 359.159 44.3855 360.132 44.096C361.104 43.8064 362.124 43.7113 363.134 43.8162C364.143 43.921 365.122 44.2237 366.014 44.707C366.906 45.1898 367.695 45.8436 368.335 46.6312C368.974 47.4188 369.453 48.3247 369.742 49.2971C370.032 50.2696 370.127 51.2896 370.022 52.2988C369.917 53.308 369.615 54.2867 369.132 55.179L359.073 73.767C358.41 74.9931 357.428 76.0171 356.23 76.7303C355.033 77.4434 353.665 77.8193 352.271 77.818Z" fill="#FFF9E2"/>
<path d="M404.829 118.717C403.76 118.718 402.703 118.498 401.724 118.068C400.745 117.639 399.866 117.01 399.143 116.223C398.456 115.477 397.922 114.602 397.573 113.65C397.224 112.697 397.066 111.685 397.108 110.671C397.15 109.658 397.391 108.662 397.818 107.742C398.245 106.821 398.848 105.994 399.595 105.307L415.144 90.993C415.89 90.3057 416.765 89.7722 417.718 89.423C418.67 89.0737 419.682 88.9156 420.696 88.9575C421.71 88.9995 422.706 89.2408 423.626 89.6676C424.547 90.0944 425.374 90.6984 426.061 91.445C426.748 92.1913 427.282 93.0658 427.631 94.0183C427.98 94.9709 428.138 95.9829 428.096 96.9966C428.054 98.0103 427.813 99.0058 427.386 99.9262C426.96 100.847 426.356 101.674 425.609 102.361L410.06 116.675C408.636 117.99 406.768 118.719 404.829 118.717Z" fill="#FFF5C6"/>
<path d="M441.253 174.467C439.751 174.468 438.282 174.031 437.024 173.209C435.767 172.388 434.777 171.218 434.174 169.842C433.766 168.913 433.546 167.912 433.525 166.898C433.504 165.884 433.683 164.875 434.052 163.93C434.421 162.985 434.972 162.121 435.674 161.389C436.377 160.657 437.217 160.071 438.146 159.663L457.5 151.174C461.409 149.463 465.966 151.238 467.679 155.146C468.087 156.075 468.307 157.076 468.328 158.09C468.349 159.104 468.17 160.113 467.801 161.058C467.432 162.003 466.881 162.867 466.178 163.599C465.476 164.331 464.636 164.917 463.707 165.325L444.353 173.814C443.376 174.244 442.32 174.466 441.253 174.467Z" fill="#FFF9E2"/>
<path d="M276.655 423.167L280.89 430.978L276.655 438.62H204.357V423.167H276.655ZM274.317 455.886L276.656 463.612L266.406 471.338H214.609C211.117 466.672 208.441 461.446 206.697 455.885L274.317 455.886Z" fill="#678D98"/>
<path d="M274.317 455.886H305.305C303.561 461.447 300.885 466.673 297.393 471.339H266.405C269.897 466.672 272.572 461.447 274.317 455.886ZM276.655 423.167H307.643V438.62H276.655V423.167Z" fill="#598691"/>
</svg>
